<?xml version="1.0" encoding="iso-8859-1" standalone="no"?>
<!DOCTYPE svg PUBLIC "-//W3C//DTD SVG 20001102//EN"
"http://www.w3.org/TR/2000/CR-SVG-20001102/DTD/svg-20001102.dtd" [
<!ENTITY ff "font-family:">
<!ENTITY fs "font-size:">
<!ENTITY fw "font-weight:">
<!ENTITY fst "font-style:">
<!ENTITY sw "stroke-width:">
<!ENTITY as "text-anchor:start;">
<!ENTITY am "text-anchor:middle;">
<!ENTITY ae "text-anchor:end;">
]>
<!-- Generated by ploticus (http://ploticus.sourceforge.net/)
Title: ploticus-graphic
SVG Driver by B.Traill
-->
<svg xmlns="http://www.w3.org/2000/svg" viewBox="0 0 1143.12 305.65" >
<g transform="translate(23.52,13.32)" >                                                            
<g style="fill:#000000;stroke:#000000;&ff;Helvetica;">
<g style="&sw;0.6;&fs;10;&as;">
<path d="M0 194.4l0 -194.4l1152 0l0 194.4z" fill="#ffffff" stroke="#ffffff"/>
</g><g style="fill:#0066cc;stroke:#0066cc;&sw;0.5;&fs;10;&as;">
<path d="M36 140.4l0 -72" fill="none"/>
</g><g style="&sw;0.5;&fs;10;&as;">
<path d="M36 141.8l0 -1.44" fill="none"/>
</g><g style="fill:#0066cc;stroke:#0066cc;&sw;0.5;&fs;10;&as;">
<path d="M51.76 140.4l0 -72" fill="none"/>
</g><g style="&sw;0.5;&fs;10;&as;">
<path d="M51.76 141.8l0 -1.44" fill="none"/>
</g><g style="fill:#0066cc;stroke:#0066cc;&sw;0.5;&fs;10;&as;">
<path d="M67.51 140.4l0 -72" fill="none"/>
</g><g style="&sw;0.5;&fs;10;&as;">
<path d="M67.51 141.8l0 -1.44" fill="none"/>
</g><g style="fill:#0066cc;stroke:#0066cc;&sw;0.5;&fs;10;&as;">
<path d="M83.27 140.4l0 -72" fill="none"/>
</g><g style="&sw;0.5;&fs;10;&as;">
<path d="M83.27 141.8l0 -1.44" fill="none"/>
</g><g style="fill:#0066cc;stroke:#0066cc;&sw;0.5;&fs;10;&as;">
<path d="M99.03 140.4l0 -72" fill="none"/>
</g><g style="&sw;0.5;&fs;10;&as;">
<path d="M99.03 141.8l0 -1.44" fill="none"/>
</g><g style="fill:#0066cc;stroke:#0066cc;&sw;0.5;&fs;10;&as;">
<path d="M114.8 140.4l0 -72" fill="none"/>
</g><g style="&sw;0.5;&fs;10;&as;">
<path d="M114.8 141.8l0 -1.44" fill="none"/>
</g><g style="fill:#0066cc;stroke:#0066cc;&sw;0.5;&fs;10;&as;">
<path d="M130.5 140.4l0 -72" fill="none"/>
</g><g style="&sw;0.5;&fs;10;&as;">
<path d="M130.5 141.8l0 -1.44" fill="none"/>
</g><g style="fill:#0066cc;stroke:#0066cc;&sw;0.5;&fs;10;&as;">
<path d="M146.3 140.4l0 -72" fill="none"/>
</g><g style="&sw;0.5;&fs;10;&as;">
<path d="M146.3 141.8l0 -1.44" fill="none"/>
</g><g style="fill:#0066cc;stroke:#0066cc;&sw;0.5;&fs;10;&as;">
<path d="M162.1 140.4l0 -72" fill="none"/>
</g><g style="&sw;0.5;&fs;10;&as;">
<path d="M162.1 141.8l0 -1.44" fill="none"/>
</g><g style="fill:#0066cc;stroke:#0066cc;&sw;0.5;&fs;10;&as;">
<path d="M177.8 140.4l0 -72" fill="none"/>
</g><g style="&sw;0.5;&fs;10;&as;">
<path d="M177.8 141.8l0 -1.44" fill="none"/>
</g><g style="fill:#0066cc;stroke:#0066cc;&sw;0.5;&fs;10;&as;">
<path d="M193.6 140.4l0 -72" fill="none"/>
</g><g style="&sw;0.5;&fs;10;&as;">
<path d="M193.6 141.8l0 -1.44" fill="none"/>
</g><g style="fill:#0066cc;stroke:#0066cc;&sw;0.5;&fs;10;&as;">
<path d="M209.3 140.4l0 -72" fill="none"/>
</g><g style="&sw;0.5;&fs;10;&as;">
<path d="M209.3 141.8l0 -1.44" fill="none"/>
</g><g style="fill:#0066cc;stroke:#0066cc;&sw;0.5;&fs;10;&as;">
<path d="M225.1 140.4l0 -72" fill="none"/>
</g><g style="&sw;0.5;&fs;10;&as;">
<path d="M225.1 141.8l0 -1.44" fill="none"/>
</g><g style="fill:#0066cc;stroke:#0066cc;&sw;0.5;&fs;10;&as;">
<path d="M240.8 140.4l0 -72" fill="none"/>
</g><g style="&sw;0.5;&fs;10;&as;">
<path d="M240.8 141.8l0 -1.44" fill="none"/>
</g><g style="fill:#0066cc;stroke:#0066cc;&sw;0.5;&fs;10;&as;">
<path d="M256.6 140.4l0 -72" fill="none"/>
</g><g style="&sw;0.5;&fs;10;&as;">
<path d="M256.6 141.8l0 -1.44" fill="none"/>
</g><g style="fill:#0066cc;stroke:#0066cc;&sw;0.5;&fs;10;&as;">
<path d="M272.4 140.4l0 -72" fill="none"/>
</g><g style="&sw;0.5;&fs;10;&as;">
<path d="M272.4 141.8l0 -1.44" fill="none"/>
</g><g style="fill:#0066cc;stroke:#0066cc;&sw;0.5;&fs;10;&as;">
<path d="M288.1 140.4l0 -72" fill="none"/>
</g><g style="&sw;0.5;&fs;10;&as;">
<path d="M288.1 141.8l0 -1.44" fill="none"/>
</g><g style="fill:#0066cc;stroke:#0066cc;&sw;0.5;&fs;10;&as;">
<path d="M303.9 140.4l0 -72" fill="none"/>
</g><g style="&sw;0.5;&fs;10;&as;">
<path d="M303.9 141.8l0 -1.44" fill="none"/>
</g><g style="fill:#0066cc;stroke:#0066cc;&sw;0.5;&fs;10;&as;">
<path d="M319.6 140.4l0 -72" fill="none"/>
</g><g style="&sw;0.5;&fs;10;&as;">
<path d="M319.6 141.8l0 -1.44" fill="none"/>
</g><g style="fill:#0066cc;stroke:#0066cc;&sw;0.5;&fs;10;&as;">
<path d="M335.4 140.4l0 -72" fill="none"/>
</g><g style="&sw;0.5;&fs;10;&as;">
<path d="M335.4 141.8l0 -1.44" fill="none"/>
</g><g style="fill:#0066cc;stroke:#0066cc;&sw;0.5;&fs;10;&as;">
<path d="M351.1 140.4l0 -72" fill="none"/>
</g><g style="&sw;0.5;&fs;10;&as;">
<path d="M351.1 141.8l0 -1.44" fill="none"/>
</g><g style="fill:#0066cc;stroke:#0066cc;&sw;0.5;&fs;10;&as;">
<path d="M366.9 140.4l0 -72" fill="none"/>
</g><g style="&sw;0.5;&fs;10;&as;">
<path d="M366.9 141.8l0 -1.44" fill="none"/>
</g><g style="fill:#0066cc;stroke:#0066cc;&sw;0.5;&fs;10;&as;">
<path d="M382.6 140.4l0 -72" fill="none"/>
</g><g style="&sw;0.5;&fs;10;&as;">
<path d="M382.6 141.8l0 -1.44" fill="none"/>
</g><g style="fill:#0066cc;stroke:#0066cc;&sw;0.5;&fs;10;&as;">
<path d="M398.4 140.4l0 -72" fill="none"/>
</g><g style="&sw;0.5;&fs;10;&as;">
<path d="M398.4 141.8l0 -1.44" fill="none"/>
</g><g style="fill:#0066cc;stroke:#0066cc;&sw;0.5;&fs;10;&as;">
<path d="M414.2 140.4l0 -72" fill="none"/>
</g><g style="&sw;0.5;&fs;10;&as;">
<path d="M414.2 141.8l0 -1.44" fill="none"/>
</g><g style="fill:#0066cc;stroke:#0066cc;&sw;0.5;&fs;10;&as;">
<path d="M429.9 140.4l0 -72" fill="none"/>
</g><g style="&sw;0.5;&fs;10;&as;">
<path d="M429.9 141.8l0 -1.44" fill="none"/>
</g><g style="fill:#0066cc;stroke:#0066cc;&sw;0.5;&fs;10;&as;">
<path d="M445.7 140.4l0 -72" fill="none"/>
</g><g style="&sw;0.5;&fs;10;&as;">
<path d="M445.7 141.8l0 -1.44" fill="none"/>
</g><g style="fill:#0066cc;stroke:#0066cc;&sw;0.5;&fs;10;&as;">
<path d="M461.4 140.4l0 -72" fill="none"/>
</g><g style="&sw;0.5;&fs;10;&as;">
<path d="M461.4 141.8l0 -1.44" fill="none"/>
</g><g style="fill:#0066cc;stroke:#0066cc;&sw;0.5;&fs;10;&as;">
<path d="M477.2 140.4l0 -72" fill="none"/>
</g><g style="&sw;0.5;&fs;10;&as;">
<path d="M477.2 141.8l0 -1.44" fill="none"/>
</g><g style="fill:#0066cc;stroke:#0066cc;&sw;0.5;&fs;10;&as;">
<path d="M492.9 140.4l0 -72" fill="none"/>
</g><g style="&sw;0.5;&fs;10;&as;">
<path d="M492.9 141.8l0 -1.44" fill="none"/>
</g><g style="fill:#0066cc;stroke:#0066cc;&sw;0.5;&fs;10;&as;">
<path d="M508.7 140.4l0 -72" fill="none"/>
</g><g style="&sw;0.5;&fs;10;&as;">
<path d="M508.7 141.8l0 -1.44" fill="none"/>
</g><g style="fill:#0066cc;stroke:#0066cc;&sw;0.5;&fs;10;&as;">
<path d="M524.5 140.4l0 -72" fill="none"/>
</g><g style="&sw;0.5;&fs;10;&as;">
<path d="M524.5 141.8l0 -1.44" fill="none"/>
</g><g style="fill:#0066cc;stroke:#0066cc;&sw;0.5;&fs;10;&as;">
<path d="M540.2 140.4l0 -72" fill="none"/>
</g><g style="&sw;0.5;&fs;10;&as;">
<path d="M540.2 141.8l0 -1.44" fill="none"/>
</g><g style="fill:#0066cc;stroke:#0066cc;&sw;0.5;&fs;10;&as;">
<path d="M556 140.4l0 -72" fill="none"/>
</g><g style="&sw;0.5;&fs;10;&as;">
<path d="M556 141.8l0 -1.44" fill="none"/>
</g><g style="fill:#0066cc;stroke:#0066cc;&sw;0.5;&fs;10;&as;">
<path d="M571.7 140.4l0 -72" fill="none"/>
</g><g style="&sw;0.5;&fs;10;&as;">
<path d="M571.7 141.8l0 -1.44" fill="none"/>
</g><g style="fill:#0066cc;stroke:#0066cc;&sw;0.5;&fs;10;&as;">
<path d="M587.5 140.4l0 -72" fill="none"/>
</g><g style="&sw;0.5;&fs;10;&as;">
<path d="M587.5 141.8l0 -1.44" fill="none"/>
</g><g style="fill:#0066cc;stroke:#0066cc;&sw;0.5;&fs;10;&as;">
<path d="M603.2 140.4l0 -72" fill="none"/>
</g><g style="&sw;0.5;&fs;10;&as;">
<path d="M603.2 141.8l0 -1.44" fill="none"/>
</g><g style="fill:#0066cc;stroke:#0066cc;&sw;0.5;&fs;10;&as;">
<path d="M619 140.4l0 -72" fill="none"/>
</g><g style="&sw;0.5;&fs;10;&as;">
<path d="M619 141.8l0 -1.44" fill="none"/>
</g><g style="fill:#0066cc;stroke:#0066cc;&sw;0.5;&fs;10;&as;">
<path d="M634.8 140.4l0 -72" fill="none"/>
</g><g style="&sw;0.5;&fs;10;&as;">
<path d="M634.8 141.8l0 -1.44" fill="none"/>
</g><g style="fill:#0066cc;stroke:#0066cc;&sw;0.5;&fs;10;&as;">
<path d="M650.5 140.4l0 -72" fill="none"/>
</g><g style="&sw;0.5;&fs;10;&as;">
<path d="M650.5 141.8l0 -1.44" fill="none"/>
</g><g style="fill:#0066cc;stroke:#0066cc;&sw;0.5;&fs;10;&as;">
<path d="M666.3 140.4l0 -72" fill="none"/>
</g><g style="&sw;0.5;&fs;10;&as;">
<path d="M666.3 141.8l0 -1.44" fill="none"/>
</g><g style="fill:#0066cc;stroke:#0066cc;&sw;0.5;&fs;10;&as;">
<path d="M682 140.4l0 -72" fill="none"/>
</g><g style="&sw;0.5;&fs;10;&as;">
<path d="M682 141.8l0 -1.44" fill="none"/>
</g><g style="fill:#0066cc;stroke:#0066cc;&sw;0.5;&fs;10;&as;">
<path d="M697.8 140.4l0 -72" fill="none"/>
</g><g style="&sw;0.5;&fs;10;&as;">
<path d="M697.8 141.8l0 -1.44" fill="none"/>
</g><g style="fill:#0066cc;stroke:#0066cc;&sw;0.5;&fs;10;&as;">
<path d="M713.5 140.4l0 -72" fill="none"/>
</g><g style="&sw;0.5;&fs;10;&as;">
<path d="M713.5 141.8l0 -1.44" fill="none"/>
</g><g style="fill:#0066cc;stroke:#0066cc;&sw;0.5;&fs;10;&as;">
<path d="M729.3 140.4l0 -72" fill="none"/>
</g><g style="&sw;0.5;&fs;10;&as;">
<path d="M729.3 141.8l0 -1.44" fill="none"/>
</g><g style="fill:#0066cc;stroke:#0066cc;&sw;0.5;&fs;10;&as;">
<path d="M745.1 140.4l0 -72" fill="none"/>
</g><g style="&sw;0.5;&fs;10;&as;">
<path d="M745.1 141.8l0 -1.44" fill="none"/>
</g><g style="fill:#0066cc;stroke:#0066cc;&sw;0.5;&fs;10;&as;">
<path d="M760.8 140.4l0 -72" fill="none"/>
</g><g style="&sw;0.5;&fs;10;&as;">
<path d="M760.8 141.8l0 -1.44" fill="none"/>
</g><g style="fill:#0066cc;stroke:#0066cc;&sw;0.5;&fs;10;&as;">
<path d="M776.6 140.4l0 -72" fill="none"/>
</g><g style="&sw;0.5;&fs;10;&as;">
<path d="M776.6 141.8l0 -1.44" fill="none"/>
</g><g style="fill:#0066cc;stroke:#0066cc;&sw;0.5;&fs;10;&as;">
<path d="M792.3 140.4l0 -72" fill="none"/>
</g><g style="&sw;0.5;&fs;10;&as;">
<path d="M792.3 141.8l0 -1.44" fill="none"/>
</g><g style="fill:#0066cc;stroke:#0066cc;&sw;0.5;&fs;10;&as;">
<path d="M808.1 140.4l0 -72" fill="none"/>
</g><g style="&sw;0.5;&fs;10;&as;">
<path d="M808.1 141.8l0 -1.44" fill="none"/>
</g><g style="fill:#0066cc;stroke:#0066cc;&sw;0.5;&fs;10;&as;">
<path d="M823.8 140.4l0 -72" fill="none"/>
</g><g style="&sw;0.5;&fs;10;&as;">
<path d="M823.8 141.8l0 -1.44" fill="none"/>
</g><g style="fill:#0066cc;stroke:#0066cc;&sw;0.5;&fs;10;&as;">
<path d="M839.6 140.4l0 -72" fill="none"/>
</g><g style="&sw;0.5;&fs;10;&as;">
<path d="M839.6 141.8l0 -1.44" fill="none"/>
</g><g style="fill:#0066cc;stroke:#0066cc;&sw;0.5;&fs;10;&as;">
<path d="M855.4 140.4l0 -72" fill="none"/>
</g><g style="&sw;0.5;&fs;10;&as;">
<path d="M855.4 141.8l0 -1.44" fill="none"/>
</g><g style="fill:#0066cc;stroke:#0066cc;&sw;0.5;&fs;10;&as;">
<path d="M871.1 140.4l0 -72" fill="none"/>
</g><g style="&sw;0.5;&fs;10;&as;">
<path d="M871.1 141.8l0 -1.44" fill="none"/>
</g><g style="fill:#0066cc;stroke:#0066cc;&sw;0.5;&fs;10;&as;">
<path d="M886.9 140.4l0 -72" fill="none"/>
</g><g style="&sw;0.5;&fs;10;&as;">
<path d="M886.9 141.8l0 -1.44" fill="none"/>
</g><g style="fill:#0066cc;stroke:#0066cc;&sw;0.5;&fs;10;&as;">
<path d="M902.6 140.4l0 -72" fill="none"/>
</g><g style="&sw;0.5;&fs;10;&as;">
<path d="M902.6 141.8l0 -1.44" fill="none"/>
</g><g style="fill:#0066cc;stroke:#0066cc;&sw;0.5;&fs;10;&as;">
<path d="M918.4 140.4l0 -72" fill="none"/>
</g><g style="&sw;0.5;&fs;10;&as;">
<path d="M918.4 141.8l0 -1.44" fill="none"/>
</g><g style="fill:#0066cc;stroke:#0066cc;&sw;0.5;&fs;10;&as;">
<path d="M934.1 140.4l0 -72" fill="none"/>
</g><g style="&sw;0.5;&fs;10;&as;">
<path d="M934.1 141.8l0 -1.44" fill="none"/>
</g><g style="fill:#0066cc;stroke:#0066cc;&sw;0.5;&fs;10;&as;">
<path d="M949.9 140.4l0 -72" fill="none"/>
</g><g style="&sw;0.5;&fs;10;&as;">
<path d="M949.9 141.8l0 -1.44" fill="none"/>
</g><g style="fill:#0066cc;stroke:#0066cc;&sw;0.5;&fs;10;&as;">
<path d="M965.6 140.4l0 -72" fill="none"/>
</g><g style="&sw;0.5;&fs;10;&as;">
<path d="M965.6 141.8l0 -1.44" fill="none"/>
</g><g style="fill:#0066cc;stroke:#0066cc;&sw;0.5;&fs;10;&as;">
<path d="M981.4 140.4l0 -72" fill="none"/>
</g><g style="&sw;0.5;&fs;10;&as;">
<path d="M981.4 141.8l0 -1.44" fill="none"/>
</g><g style="fill:#0066cc;stroke:#0066cc;&sw;0.5;&fs;10;&as;">
<path d="M997.2 140.4l0 -72" fill="none"/>
</g><g style="&sw;0.5;&fs;10;&as;">
<path d="M997.2 141.8l0 -1.44" fill="none"/>
</g><g style="fill:#0066cc;stroke:#0066cc;&sw;0.5;&fs;10;&as;">
<path d="M1013 140.4l0 -72" fill="none"/>
</g><g style="&sw;0.5;&fs;10;&as;">
<path d="M1013 141.8l0 -1.44" fill="none"/>
</g><g style="fill:#0066cc;stroke:#0066cc;&sw;0.5;&fs;10;&as;">
<path d="M1029 140.4l0 -72" fill="none"/>
</g><g style="&sw;0.5;&fs;10;&as;">
<path d="M1029 141.8l0 -1.44" fill="none"/>
</g><g style="fill:#0066cc;stroke:#0066cc;&sw;0.5;&fs;10;&as;">
<path d="M1044 140.4l0 -72" fill="none"/>
</g><g style="&sw;0.5;&fs;10;&as;">
<path d="M1044 141.8l0 -1.44" fill="none"/>
</g><g style="fill:#0066cc;stroke:#0066cc;&sw;0.5;&fs;10;&as;">
<path d="M1060 140.4l0 -72" fill="none"/>
</g><g style="&sw;0.5;&fs;10;&as;">
<path d="M1060 141.8l0 -1.44" fill="none"/>
</g><g style="fill:#0066cc;stroke:#0066cc;&sw;0.5;&fs;10;&as;">
<path d="M1076 140.4l0 -72" fill="none"/>
</g><g style="&sw;0.5;&fs;10;&as;">
<path d="M1076 141.8l0 -1.44" fill="none"/>
</g><g style="fill:#0066cc;stroke:#0066cc;&sw;0.5;&fs;10;&as;">
<path d="M1092 140.4l0 -72" fill="none"/>
</g><g style="&sw;0.5;&fs;10;&as;">
<path d="M1092 141.8l0 -1.44" fill="none"/>
</g><g style="fill:#0066cc;stroke:#0066cc;&sw;0.5;&fs;10;&as;">
<path d="M1107 140.4l0 -72" fill="none"/>
</g><g style="&sw;0.5;&fs;10;&as;">
<path d="M1107 141.8l0 -1.44" fill="none"/>
<path d="M36 140.4l1080 0" fill="none"/>
</g><g style="fill:#ff0000;stroke:#ff0000;&sw;0.5;&fs;10;&as;">
<path d="M36 140.4l0 -72" fill="none"/>
</g><g style="&sw;0.5;&fs;10;&as;">
<path d="M36 144l0 -3.6" fill="none"/>
</g><g style="fill:#ff0000;stroke:#ff0000;&sw;0.5;&fs;10;&as;">
<path d="M225.1 140.4l0 -72" fill="none"/>
</g><g style="&sw;0.5;&fs;10;&as;">
<path d="M225.1 144l0 -3.6" fill="none"/>
</g><g style="fill:#ff0000;stroke:#ff0000;&sw;0.5;&fs;10;&as;">
<path d="M414.2 140.4l0 -72" fill="none"/>
</g><g style="&sw;0.5;&fs;10;&as;">
<path d="M414.2 144l0 -3.6" fill="none"/>
</g><g style="fill:#ff0000;stroke:#ff0000;&sw;0.5;&fs;10;&as;">
<path d="M603.2 140.4l0 -72" fill="none"/>
</g><g style="&sw;0.5;&fs;10;&as;">
<path d="M603.2 144l0 -3.6" fill="none"/>
</g><g style="fill:#ff0000;stroke:#ff0000;&sw;0.5;&fs;10;&as;">
<path d="M792.3 140.4l0 -72" fill="none"/>
</g><g style="&sw;0.5;&fs;10;&as;">
<path d="M792.3 144l0 -3.6" fill="none"/>
</g><g style="fill:#ff0000;stroke:#ff0000;&sw;0.5;&fs;10;&as;">
<path d="M981.4 140.4l0 -72" fill="none"/>
</g><g style="&sw;0.5;&fs;10;&as;">
<path d="M981.4 144l0 -3.6" fill="none"/>
<path d="M36 140.4l1080 0" fill="none"/>
<path d="M36 86.39l46.08 0l0 -18l-46.08 0z" fill="#ed496d" stroke="#ed496d"/>
<path d="M82.6 86.39l46.6 0l0 -18l-46.6 0z" fill="#d3c4fc" stroke="#d3c4fc"/>
<path d="M129.7 86.39l47.11 0l0 -18l-47.11 0z" fill="#a56c0a" stroke="#a56c0a"/>
<path d="M177.3 86.39l47.11 0l0 -18l-47.11 0z" fill="#00004c" stroke="#00004c"/>
<path d="M225 86.39l188.5 0l0 -18l-188.5 0z" fill="#00b200" stroke="#00b200"/>
<path d="M413.9 86.39l0.5177 0l0 -18l-0.5177 0z" fill="#d8a53f" stroke="#d8a53f"/>
<path d="M414.5 86.39l12.43 0l0 -18l-12.43 0z" fill="#b2ccff" stroke="#b2ccff"/>
<path d="M426.9 86.39l15.01 0l0 -18l-15.01 0z" fill="#b24c4c" stroke="#b24c4c"/>
<path d="M441.9 86.39l18.64 0l0 -18l-18.64 0z" fill="#d8a53f" stroke="#d8a53f"/>
<path d="M461.1 86.39l94.23 0l0 -18l-94.23 0z" fill="#00b200" stroke="#00b200"/>
<path d="M555.8 86.39l41.42 0l0 -18l-41.42 0z" fill="#b3b3b3" stroke="#b3b3b3"/>
<path d="M598.3 86.39l4.66 0l0 -18l-4.66 0z" fill="#ccb2cc" stroke="#ccb2cc"/>
<path d="M603.4 86.39l93.19 0l0 -18l-93.19 0z" fill="#b2ccff" stroke="#b2ccff"/>
<path d="M697.2 86.39l47.11 0l0 -18l-47.11 0z" fill="#ff0000" stroke="#ff0000"/>
<path d="M744.8 86.39l47.11 0l0 -18l-47.11 0z" fill="#007fcc" stroke="#007fcc"/>
<path d="M792.4 86.39l46.08 0l0 -18l-46.08 0z" fill="#0a3d14" stroke="#0a3d14"/>
<path d="M839 86.39l94.23 0l0 -18l-94.23 0z" fill="#99cc33" stroke="#99cc33"/>
<path d="M933.8 86.39l47.11 0l0 -18l-47.11 0z" fill="#0a3d14" stroke="#0a3d14"/>
<path d="M981.4 86.39l46.08 0l0 -18l-46.08 0z" fill="#b2ccff" stroke="#b2ccff"/>
<path d="M1028 86.39l46.6 0l0 -18l-46.6 0z" fill="#ff9999" stroke="#ff9999"/>
<path d="M1075 86.39l40.9 0l0 -18l-40.9 0z" fill="#b2ccff" stroke="#b2ccff"/>
<path d="M52.05 113.4l140.8 0l0 -18l-140.8 0z" fill="#eaea00" stroke="#eaea00"/>
<path d="M193.4 113.4l330.3 0l0 -18l-330.3 0z" fill="#ff0000" stroke="#ff0000"/>
<path d="M524.2 113.4l47.11 0l0 -18l-47.11 0z" fill="#000099" stroke="#000099"/>
<path d="M571.9 113.4l47.11 0l0 -18l-47.11 0z" fill="#ff0000" stroke="#ff0000"/>
<path d="M619.5 113.4l45.56 0l0 -18l-45.56 0z" fill="#ffcccc" stroke="#ffcccc"/>
<path d="M665.6 113.4l47.11 0l0 -18l-47.11 0z" fill="#0a3d14" stroke="#0a3d14"/>
<path d="M713.2 113.4l36.76 0l0 -18l-36.76 0z" fill="#b2ccff" stroke="#b2ccff"/>
<path d="M751.5 113.4l8.802 0l0 -18l-8.802 0z" fill="#ffcc99" stroke="#ffcc99"/>
<path d="M760.8 113.4l140.8 0l0 -18l-140.8 0z" fill="#ff0000" stroke="#ff0000"/>
<path d="M902.2 113.4l47.11 0l0 -18l-47.11 0z" fill="#ff7f00" stroke="#ff7f00"/>
<path d="M949.8 113.4l140.8 0l0 -18l-140.8 0z" fill="#ff0000" stroke="#ff0000"/>
<path d="M1091 113.4l24.85 0l0 -18l-24.85 0z" fill="#cc843e" stroke="#cc843e"/>
<path d="M66.55 140.4l47.11 0l0 -18l-47.11 0z" fill="#00ffff" stroke="#00ffff"/>
<path d="M114.2 140.4l47.11 0l0 -18l-47.11 0z" fill="#d1681e" stroke="#d1681e"/>
<path d="M161.8 140.4l46.6 0l0 -18l-46.6 0z" fill="#ff7f00" stroke="#ff7f00"/>
<path d="M208.9 140.4l141.3 0l0 -18l-141.3 0z" fill="#000099" stroke="#000099"/>
<path d="M350.8 140.4l46.6 0l0 -18l-46.6 0z" fill="#ffff00" stroke="#ffff00"/>
<path d="M397.9 140.4l94.23 0l0 -18l-94.23 0z" fill="#00ff00" stroke="#00ff00"/>
<path d="M492.6 140.4l47.11 0l0 -18l-47.11 0z" fill="#ccb2cc" stroke="#ccb2cc"/>
<path d="M540.3 140.4l46.6 0l0 -18l-46.6 0z" fill="#266626" stroke="#266626"/>
<path d="M587.4 140.4l37.28 0l0 -18l-37.28 0z" fill="#0000ff" stroke="#0000ff"/>
<path d="M624.7 140.4l8.802 0l0 -18l-8.802 0z" fill="#266626" stroke="#266626"/>
<path d="M634 140.4l47.11 0l0 -18l-47.11 0z" fill="#ff0000" stroke="#ff0000"/>
<path d="M681.6 140.4l47.11 0l0 -18l-47.11 0z" fill="#e5d8bf" stroke="#e5d8bf"/>
<path d="M729.3 140.4l93.19 0l0 -18l-93.19 0z" fill="#ffff00" stroke="#ffff00"/>
<path d="M823 140.4l47.11 0l0 -18l-47.11 0z" fill="#ff9999" stroke="#ff9999"/>
<path d="M870.6 140.4l140.8 0l0 -18l-140.8 0z" fill="#9999ff" stroke="#9999ff"/>
<path d="M1012 140.4l47.11 0l0 -18l-47.11 0z" fill="#770077" stroke="#770077"/>
<path d="M1060 140.4l47.11 0l0 -18l-47.11 0z" fill="#7f5400" stroke="#7f5400"/>
<path d="M1107 140.4l8.802 0l0 -18l-8.802 0z" fill="#770077" stroke="#770077"/>
<path d="M36 86.39l0 0l0 -18l0 0z" fill="#ffffff" stroke="#ffffff"/>
<path d="M82.08 86.39l0 0l0 -18l0 0z" fill="#ffffff" stroke="#ffffff"/>
<path d="M82.6 86.39l0 0l0 -18l0 0z" fill="#ffffff" stroke="#ffffff"/>
<path d="M129.2 86.39l0 0l0 -18l0 0z" fill="#ffffff" stroke="#ffffff"/>
<path d="M129.7 86.39l0 0l0 -18l0 0z" fill="#ffffff" stroke="#ffffff"/>
<path d="M176.8 86.39l0 0l0 -18l0 0z" fill="#ffffff" stroke="#ffffff"/>
<path d="M177.3 86.39l0 0l0 -18l0 0z" fill="#ffffff" stroke="#ffffff"/>
<path d="M224.5 86.39l0 0l0 -18l0 0z" fill="#ffffff" stroke="#ffffff"/>
<path d="M225 86.39l0 0l0 -18l0 0z" fill="#ffffff" stroke="#ffffff"/>
<path d="M413.4 86.39l0 0l0 -18l0 0z" fill="#ffffff" stroke="#ffffff"/>
<path d="M413.9 86.39l0 0l0 -18l0 0z" fill="#ffffff" stroke="#ffffff"/>
<path d="M414.5 86.39l0 0l0 -18l0 0z" fill="#ffffff" stroke="#ffffff"/>
<path d="M414.5 86.39l0 0l0 -18l0 0z" fill="#ffffff" stroke="#ffffff"/>
<path d="M426.9 86.39l0 0l0 -18l0 0z" fill="#ffffff" stroke="#ffffff"/>
<path d="M426.9 86.39l0 0l0 -18l0 0z" fill="#ffffff" stroke="#ffffff"/>
<path d="M441.9 86.39l0 0l0 -18l0 0z" fill="#ffffff" stroke="#ffffff"/>
<path d="M441.9 86.39l0 0l0 -18l0 0z" fill="#ffffff" stroke="#ffffff"/>
<path d="M460.5 86.39l0 0l0 -18l0 0z" fill="#ffffff" stroke="#ffffff"/>
<path d="M461.1 86.39l0 0l0 -18l0 0z" fill="#ffffff" stroke="#ffffff"/>
<path d="M555.3 86.39l0 0l0 -18l0 0z" fill="#ffffff" stroke="#ffffff"/>
<path d="M555.8 86.39l0 0l0 -18l0 0z" fill="#ffffff" stroke="#ffffff"/>
<path d="M597.2 86.39l0 0l0 -18l0 0z" fill="#ffffff" stroke="#ffffff"/>
<path d="M598.3 86.39l0 0l0 -18l0 0z" fill="#ffffff" stroke="#ffffff"/>
<path d="M602.9 86.39l0 0l0 -18l0 0z" fill="#ffffff" stroke="#ffffff"/>
<path d="M603.4 86.39l0 0l0 -18l0 0z" fill="#ffffff" stroke="#ffffff"/>
<path d="M696.6 86.39l0 0l0 -18l0 0z" fill="#ffffff" stroke="#ffffff"/>
<path d="M697.2 86.39l0 0l0 -18l0 0z" fill="#ffffff" stroke="#ffffff"/>
<path d="M744.3 86.39l0 0l0 -18l0 0z" fill="#ffffff" stroke="#ffffff"/>
<path d="M744.8 86.39l0 0l0 -18l0 0z" fill="#ffffff" stroke="#ffffff"/>
<path d="M791.9 86.39l0 0l0 -18l0 0z" fill="#ffffff" stroke="#ffffff"/>
<path d="M792.4 86.39l0 0l0 -18l0 0z" fill="#ffffff" stroke="#ffffff"/>
<path d="M838.5 86.39l0 0l0 -18l0 0z" fill="#ffffff" stroke="#ffffff"/>
<path d="M839 86.39l0 0l0 -18l0 0z" fill="#ffffff" stroke="#ffffff"/>
<path d="M933.2 86.39l0 0l0 -18l0 0z" fill="#ffffff" stroke="#ffffff"/>
<path d="M933.8 86.39l0 0l0 -18l0 0z" fill="#ffffff" stroke="#ffffff"/>
<path d="M980.9 86.39l0 0l0 -18l0 0z" fill="#ffffff" stroke="#ffffff"/>
<path d="M981.4 86.39l0 0l0 -18l0 0z" fill="#ffffff" stroke="#ffffff"/>
<path d="M1027 86.39l0 0l0 -18l0 0z" fill="#ffffff" stroke="#ffffff"/>
<path d="M1028 86.39l0 0l0 -18l0 0z" fill="#ffffff" stroke="#ffffff"/>
<path d="M1075 86.39l0 0l0 -18l0 0z" fill="#ffffff" stroke="#ffffff"/>
<path d="M1075 86.39l0 0l0 -18l0 0z" fill="#ffffff" stroke="#ffffff"/>
<path d="M1116 86.39l0 0l0 -18l0 0z" fill="#ffffff" stroke="#ffffff"/>
<path d="M52.05 113.4l0 0l0 -18l0 0z" fill="#ffffff" stroke="#ffffff"/>
<path d="M192.9 113.4l0 0l0 -18l0 0z" fill="#ffffff" stroke="#ffffff"/>
<path d="M193.4 113.4l0 0l0 -18l0 0z" fill="#ffffff" stroke="#ffffff"/>
<path d="M523.7 113.4l0 0l0 -18l0 0z" fill="#ffffff" stroke="#ffffff"/>
<path d="M524.2 113.4l0 0l0 -18l0 0z" fill="#ffffff" stroke="#ffffff"/>
<path d="M571.3 113.4l0 0l0 -18l0 0z" fill="#ffffff" stroke="#ffffff"/>
<path d="M571.9 113.4l0 0l0 -18l0 0z" fill="#ffffff" stroke="#ffffff"/>
<path d="M619 113.4l0 0l0 -18l0 0z" fill="#ffffff" stroke="#ffffff"/>
<path d="M619.5 113.4l0 0l0 -18l0 0z" fill="#ffffff" stroke="#ffffff"/>
<path d="M665.1 113.4l0 0l0 -18l0 0z" fill="#ffffff" stroke="#ffffff"/>
<path d="M665.6 113.4l0 0l0 -18l0 0z" fill="#ffffff" stroke="#ffffff"/>
<path d="M712.7 113.4l0 0l0 -18l0 0z" fill="#ffffff" stroke="#ffffff"/>
<path d="M713.2 113.4l0 0l0 -18l0 0z" fill="#ffffff" stroke="#ffffff"/>
<path d="M750 113.4l0 0l0 -18l0 0z" fill="#ffffff" stroke="#ffffff"/>
<path d="M751.5 113.4l0 0l0 -18l0 0z" fill="#ffffff" stroke="#ffffff"/>
<path d="M760.3 113.4l0 0l0 -18l0 0z" fill="#ffffff" stroke="#ffffff"/>
<path d="M760.8 113.4l0 0l0 -18l0 0z" fill="#ffffff" stroke="#ffffff"/>
<path d="M901.7 113.4l0 0l0 -18l0 0z" fill="#ffffff" stroke="#ffffff"/>
<path d="M902.2 113.4l0 0l0 -18l0 0z" fill="#ffffff" stroke="#ffffff"/>
<path d="M949.3 113.4l0 0l0 -18l0 0z" fill="#ffffff" stroke="#ffffff"/>
<path d="M949.8 113.4l0 0l0 -18l0 0z" fill="#ffffff" stroke="#ffffff"/>
<path d="M1091 113.4l0 0l0 -18l0 0z" fill="#ffffff" stroke="#ffffff"/>
<path d="M1091 113.4l0 0l0 -18l0 0z" fill="#ffffff" stroke="#ffffff"/>
<path d="M1116 113.4l0 0l0 -18l0 0z" fill="#ffffff" stroke="#ffffff"/>
<path d="M66.55 140.4l0 0l0 -18l0 0z" fill="#ffffff" stroke="#ffffff"/>
<path d="M113.7 140.4l0 0l0 -18l0 0z" fill="#ffffff" stroke="#ffffff"/>
<path d="M114.2 140.4l0 0l0 -18l0 0z" fill="#ffffff" stroke="#ffffff"/>
<path d="M161.3 140.4l0 0l0 -18l0 0z" fill="#ffffff" stroke="#ffffff"/>
<path d="M161.8 140.4l0 0l0 -18l0 0z" fill="#ffffff" stroke="#ffffff"/>
<path d="M208.4 140.4l0 0l0 -18l0 0z" fill="#ffffff" stroke="#ffffff"/>
<path d="M208.9 140.4l0 0l0 -18l0 0z" fill="#ffffff" stroke="#ffffff"/>
<path d="M350.3 140.4l0 0l0 -18l0 0z" fill="#ffffff" stroke="#ffffff"/>
<path d="M350.8 140.4l0 0l0 -18l0 0z" fill="#ffffff" stroke="#ffffff"/>
<path d="M397.4 140.4l0 0l0 -18l0 0z" fill="#ffffff" stroke="#ffffff"/>
<path d="M397.9 140.4l0 0l0 -18l0 0z" fill="#ffffff" stroke="#ffffff"/>
<path d="M492.1 140.4l0 0l0 -18l0 0z" fill="#ffffff" stroke="#ffffff"/>
<path d="M492.6 140.4l0 0l0 -18l0 0z" fill="#ffffff" stroke="#ffffff"/>
<path d="M539.8 140.4l0 0l0 -18l0 0z" fill="#ffffff" stroke="#ffffff"/>
<path d="M540.3 140.4l0 0l0 -18l0 0z" fill="#ffffff" stroke="#ffffff"/>
<path d="M586.9 140.4l0 0l0 -18l0 0z" fill="#ffffff" stroke="#ffffff"/>
<path d="M587.4 140.4l0 0l0 -18l0 0z" fill="#ffffff" stroke="#ffffff"/>
<path d="M624.7 140.4l0 0l0 -18l0 0z" fill="#ffffff" stroke="#ffffff"/>
<path d="M624.7 140.4l0 0l0 -18l0 0z" fill="#ffffff" stroke="#ffffff"/>
<path d="M633.5 140.4l0 0l0 -18l0 0z" fill="#ffffff" stroke="#ffffff"/>
<path d="M634 140.4l0 0l0 -18l0 0z" fill="#ffffff" stroke="#ffffff"/>
<path d="M681.1 140.4l0 0l0 -18l0 0z" fill="#ffffff" stroke="#ffffff"/>
<path d="M681.6 140.4l0 0l0 -18l0 0z" fill="#ffffff" stroke="#ffffff"/>
<path d="M728.7 140.4l0 0l0 -18l0 0z" fill="#ffffff" stroke="#ffffff"/>
<path d="M729.3 140.4l0 0l0 -18l0 0z" fill="#ffffff" stroke="#ffffff"/>
<path d="M822.4 140.4l0 0l0 -18l0 0z" fill="#ffffff" stroke="#ffffff"/>
<path d="M823 140.4l0 0l0 -18l0 0z" fill="#ffffff" stroke="#ffffff"/>
<path d="M870.1 140.4l0 0l0 -18l0 0z" fill="#ffffff" stroke="#ffffff"/>
<path d="M870.6 140.4l0 0l0 -18l0 0z" fill="#ffffff" stroke="#ffffff"/>
<path d="M1011 140.4l0 0l0 -18l0 0z" fill="#ffffff" stroke="#ffffff"/>
<path d="M1012 140.4l0 0l0 -18l0 0z" fill="#ffffff" stroke="#ffffff"/>
<path d="M1059 140.4l0 0l0 -18l0 0z" fill="#ffffff" stroke="#ffffff"/>
<path d="M1060 140.4l0 0l0 -18l0 0z" fill="#ffffff" stroke="#ffffff"/>
<path d="M1107 140.4l0 0l0 -18l0 0z" fill="#ffffff" stroke="#ffffff"/>
<path d="M1107 140.4l0 0l0 -18l0 0z" fill="#ffffff" stroke="#ffffff"/>
<path d="M1116 140.4l0 0l0 -18l0 0z" fill="#ffffff" stroke="#ffffff"/>
</g><g style="&sw;0.5;&fs;17;&as;">
<text x="792.00" y="175.68" stroke="none">The History of the Commissionership</text>
</g><g style="&sw;0.5;&fs;10;&as;">
<text x="849.60" y="193.68" stroke="none">From January 2018 to September 2023</text>
</g><g style="&sw;0.5;&fs;8;&as;">
<text x="36.00" y="164.88" stroke="none">All dates are in DD/MM/YYYY. Chart made by Connor (Dizgovzy), last updated 19/09/2023.</text>
</g><g style="&sw;0.5;&fs;7;&as;">
<text x="36.00" y="-0.72" stroke="none">Commissioner known as Deputy Commissioner during Naifon&#39;s Term.</text>
<text x="36.00" y="6.48" stroke="none">Gor Kebab lost elector status (ejected from WA for multying) on 02/01/2020. At the time, it was believed that this was due to Gor Kebab&#39;s fiancee using the same internet network as Gor Kebab. Runner-up Rivierenland appointed.</text>
<text x="36.00" y="13.68" stroke="none">Rivierenland lost elector status (moved regions, to Thaecia) on 26/01/2020.</text>
<text x="36.00" y="20.88" stroke="none">Wombelland appointed for being most endorsed non-government elector on 26/01/2020</text>
<text x="36.00" y="28.08" stroke="none">Gor Kebab appointed via the Commissions (Elections) Act 2020 on 24/02/2020, through the puppet Gor Nacho. It was revealed in 2023 by self-admission that Gor Kebab had been WA Multying, and thus arguably should not have been reinstated.</text>
<text x="36.00" y="35.28" stroke="none">Telegrams (Campaign) Act 2020 passed in April.</text>
<text x="36.00" y="42.48" stroke="none">Eurasies CTEd on 20/12/2020, position vacant until runner-up Eritei appointed on 22/12/2020.</text>
<text x="36.00" y="49.68" stroke="none">Einswenn lost elector status (moved regions, to Forest) on 11/02/2021. Runner-up Republic of Satherland appointed.</text>
<text x="36.00" y="56.88" stroke="none">Rivierenland lost elector status (resigned from WA) and was given 24 hours to rejoin. GanymedEuropa was then offered the position but did not respond. Walfo was then offered the position and accepted. 1DC vacant from 11/10/2021 to 14/10/2021.</text>
</g><g style="&sw;0.5;&fs;8;&ae;">
<text x="31.68" y="80.76" stroke="none">Commissioner</text>
<text x="31.68" y="107.76" stroke="none">1DC</text>
<text x="31.68" y="134.75" stroke="none">2DC</text>
<path d="M36 140.4l0 -72" fill="none"/>
<path d="M36 141.8l0 -1.44" fill="none"/>
<path d="M51.76 141.8l0 -1.44" fill="none"/>
<path d="M67.51 141.8l0 -1.44" fill="none"/>
<path d="M83.27 141.8l0 -1.44" fill="none"/>
<path d="M99.03 141.8l0 -1.44" fill="none"/>
<path d="M114.8 141.8l0 -1.44" fill="none"/>
<path d="M130.5 141.8l0 -1.44" fill="none"/>
<path d="M146.3 141.8l0 -1.44" fill="none"/>
<path d="M162.1 141.8l0 -1.44" fill="none"/>
<path d="M177.8 141.8l0 -1.44" fill="none"/>
<path d="M193.6 141.8l0 -1.44" fill="none"/>
<path d="M209.3 141.8l0 -1.44" fill="none"/>
<path d="M225.1 141.8l0 -1.44" fill="none"/>
<path d="M240.8 141.8l0 -1.44" fill="none"/>
<path d="M256.6 141.8l0 -1.44" fill="none"/>
<path d="M272.4 141.8l0 -1.44" fill="none"/>
<path d="M288.1 141.8l0 -1.44" fill="none"/>
<path d="M303.9 141.8l0 -1.44" fill="none"/>
<path d="M319.6 141.8l0 -1.44" fill="none"/>
<path d="M335.4 141.8l0 -1.44" fill="none"/>
<path d="M351.1 141.8l0 -1.44" fill="none"/>
<path d="M366.9 141.8l0 -1.44" fill="none"/>
<path d="M382.6 141.8l0 -1.44" fill="none"/>
<path d="M398.4 141.8l0 -1.44" fill="none"/>
<path d="M414.2 141.8l0 -1.44" fill="none"/>
<path d="M429.9 141.8l0 -1.44" fill="none"/>
<path d="M445.7 141.8l0 -1.44" fill="none"/>
<path d="M461.4 141.8l0 -1.44" fill="none"/>
<path d="M477.2 141.8l0 -1.44" fill="none"/>
<path d="M492.9 141.8l0 -1.44" fill="none"/>
<path d="M508.7 141.8l0 -1.44" fill="none"/>
<path d="M524.5 141.8l0 -1.44" fill="none"/>
<path d="M540.2 141.8l0 -1.44" fill="none"/>
<path d="M556 141.8l0 -1.44" fill="none"/>
<path d="M571.7 141.8l0 -1.44" fill="none"/>
<path d="M587.5 141.8l0 -1.44" fill="none"/>
<path d="M603.2 141.8l0 -1.44" fill="none"/>
<path d="M619 141.8l0 -1.44" fill="none"/>
<path d="M634.8 141.8l0 -1.44" fill="none"/>
<path d="M650.5 141.8l0 -1.44" fill="none"/>
<path d="M666.3 141.8l0 -1.44" fill="none"/>
<path d="M682 141.8l0 -1.44" fill="none"/>
<path d="M697.8 141.8l0 -1.44" fill="none"/>
<path d="M713.5 141.8l0 -1.44" fill="none"/>
<path d="M729.3 141.8l0 -1.44" fill="none"/>
<path d="M745.1 141.8l0 -1.44" fill="none"/>
<path d="M760.8 141.8l0 -1.44" fill="none"/>
<path d="M776.6 141.8l0 -1.44" fill="none"/>
<path d="M792.3 141.8l0 -1.44" fill="none"/>
<path d="M808.1 141.8l0 -1.44" fill="none"/>
<path d="M823.8 141.8l0 -1.44" fill="none"/>
<path d="M839.6 141.8l0 -1.44" fill="none"/>
<path d="M855.4 141.8l0 -1.44" fill="none"/>
<path d="M871.1 141.8l0 -1.44" fill="none"/>
<path d="M886.9 141.8l0 -1.44" fill="none"/>
<path d="M902.6 141.8l0 -1.44" fill="none"/>
<path d="M918.4 141.8l0 -1.44" fill="none"/>
<path d="M934.1 141.8l0 -1.44" fill="none"/>
<path d="M949.9 141.8l0 -1.44" fill="none"/>
<path d="M965.6 141.8l0 -1.44" fill="none"/>
<path d="M981.4 141.8l0 -1.44" fill="none"/>
<path d="M997.2 141.8l0 -1.44" fill="none"/>
<path d="M1013 141.8l0 -1.44" fill="none"/>
<path d="M1029 141.8l0 -1.44" fill="none"/>
<path d="M1044 141.8l0 -1.44" fill="none"/>
<path d="M1060 141.8l0 -1.44" fill="none"/>
<path d="M1076 141.8l0 -1.44" fill="none"/>
<path d="M1092 141.8l0 -1.44" fill="none"/>
<path d="M1107 141.8l0 -1.44" fill="none"/>
<path d="M36 140.4l1080 0" fill="none"/>
</g><g style="&sw;0.5;&fs;8;&am;">
<text x="36.00" y="154.00" stroke="none">2018</text>
<path d="M36 144l0 -3.6" fill="none"/>
<text x="225.08" y="154.00" stroke="none">2019</text>
<path d="M225.1 144l0 -3.6" fill="none"/>
<text x="414.16" y="154.00" stroke="none">2020</text>
<path d="M414.2 144l0 -3.6" fill="none"/>
<text x="603.24" y="154.00" stroke="none">2021</text>
<path d="M603.2 144l0 -3.6" fill="none"/>
<text x="792.32" y="154.00" stroke="none">2022</text>
<path d="M792.3 144l0 -3.6" fill="none"/>
<text x="981.40" y="154.00" stroke="none">2023</text>
<path d="M981.4 144l0 -3.6" fill="none"/>
<path d="M36 140.4l1080 0" fill="none"/>
<path d="M-1.08 203.6l0 -8.64l8.64 0l0 8.64z" fill="#ed496d" stroke="#ed496d"/>
</g><g style="&sw;0.5;&fs;8;&as;">
<text x="14.76" y="203.61" stroke="none">Naifon</text>
<path d="M-1.08 215.8l0 -8.64l8.64 0l0 8.64z" fill="#eaea00" stroke="#eaea00"/>
<text x="14.76" y="215.77" stroke="none">Feria-Alkaline</text>
<path d="M-1.08 227.9l0 -8.64l8.64 0l0 8.64z" fill="#00ffff" stroke="#00ffff"/>
<text x="14.76" y="227.93" stroke="none">Overmorrow</text>
<path d="M-1.08 240.1l0 -8.64l8.64 0l0 8.64z" fill="#d3c4fc" stroke="#d3c4fc"/>
<text x="14.76" y="240.09" stroke="none">Great New Sealand</text>
<path d="M-1.08 252.2l0 -8.64l8.64 0l0 8.64z" fill="#d1681e" stroke="#d1681e"/>
<text x="14.76" y="252.25" stroke="none">Thils</text>
<path d="M-1.08 264.4l0 -8.64l8.64 0l0 8.64z" fill="#a56c0a" stroke="#a56c0a"/>
<text x="14.76" y="264.41" stroke="none">Aweland</text>
<path d="M-1.08 276.6l0 -8.64l8.64 0l0 8.64z" fill="#ff7f00" stroke="#ff7f00"/>
<text x="14.76" y="276.57" stroke="none">Qroma</text>
<path d="M-1.08 288.7l0 -8.64l8.64 0l0 8.64z" fill="#00004c" stroke="#00004c"/>
<text x="14.76" y="288.73" stroke="none">The Mongol Plain</text>
<path d="M214.9 203.6l0 -8.64l8.64 0l0 8.64z" fill="#ff0000" stroke="#ff0000"/>
<text x="230.76" y="203.61" stroke="none">St Scarlett</text>
<path d="M214.9 215.8l0 -8.64l8.64 0l0 8.64z" fill="#000099" stroke="#000099"/>
<text x="230.76" y="215.77" stroke="none">South St Maarten</text>
<path d="M214.9 227.9l0 -8.64l8.64 0l0 8.64z" fill="#00b200" stroke="#00b200"/>
<text x="230.76" y="227.93" stroke="none">Regnum Italiae</text>
<path d="M214.9 240.1l0 -8.64l8.64 0l0 8.64z" fill="#ffff00" stroke="#ffff00"/>
<text x="230.76" y="240.09" stroke="none">Yahlia</text>
<path d="M214.9 252.2l0 -8.64l8.64 0l0 8.64z" fill="#00ff00" stroke="#00ff00"/>
<text x="230.76" y="252.25" stroke="none">Outer Sparta</text>
<path d="M214.9 264.4l0 -8.64l8.64 0l0 8.64z" fill="#d8a53f" stroke="#d8a53f"/>
<text x="230.76" y="264.41" stroke="none">Gor Kebab</text>
<path d="M214.9 276.6l0 -8.64l8.64 0l0 8.64z" fill="#b2ccff" stroke="#b2ccff"/>
<text x="230.76" y="276.57" stroke="none">Helisweerde (known as Rivierenland until 2022)</text>
<path d="M214.9 288.7l0 -8.64l8.64 0l0 8.64z" fill="#b24c4c" stroke="#b24c4c"/>
<text x="230.76" y="288.73" stroke="none">Wombelland</text>
<path d="M430.9 203.6l0 -8.64l8.64 0l0 8.64z" fill="#ccb2cc" stroke="#ccb2cc"/>
<text x="446.76" y="203.61" stroke="none">Eritei</text>
<path d="M430.9 215.8l0 -8.64l8.64 0l0 8.64z" fill="#266626" stroke="#266626"/>
<text x="446.76" y="215.77" stroke="none">Republic of Satherland</text>
<path d="M430.9 227.9l0 -8.64l8.64 0l0 8.64z" fill="#b3b3b3" stroke="#b3b3b3"/>
<text x="446.76" y="227.93" stroke="none">Eurasies</text>
<path d="M430.9 240.1l0 -8.64l8.64 0l0 8.64z" fill="#0000ff" stroke="#0000ff"/>
<text x="446.76" y="240.09" stroke="none">Einswenn</text>
<path d="M430.9 252.2l0 -8.64l8.64 0l0 8.64z" fill="#ffcccc" stroke="#ffcccc"/>
<text x="446.76" y="252.25" stroke="none">The Kingdom of Denmark</text>
<path d="M430.9 264.4l0 -8.64l8.64 0l0 8.64z" fill="#0a3d14" stroke="#0a3d14"/>
<text x="446.76" y="264.41" stroke="none">Nardin</text>
<path d="M430.9 276.6l0 -8.64l8.64 0l0 8.64z" fill="#e5d8bf" stroke="#e5d8bf"/>
<text x="446.76" y="276.57" stroke="none">Apabeossie</text>
<path d="M430.9 288.7l0 -8.64l8.64 0l0 8.64z" fill="#007fcc" stroke="#007fcc"/>
<text x="446.76" y="288.73" stroke="none">The New Nordic Union</text>
<path d="M646.9 203.6l0 -8.64l8.64 0l0 8.64z" fill="#ffcc99" stroke="#ffcc99"/>
<text x="662.76" y="203.61" stroke="none">Walfo</text>
<path d="M646.9 215.8l0 -8.64l8.64 0l0 8.64z" fill="#ff9999" stroke="#ff9999"/>
<text x="662.76" y="215.77" stroke="none">North Portugal</text>
<path d="M646.9 227.9l0 -8.64l8.64 0l0 8.64z" fill="#99cc33" stroke="#99cc33"/>
<text x="662.76" y="227.93" stroke="none">Eco-Paris Reformation</text>
<path d="M646.9 240.1l0 -8.64l8.64 0l0 8.64z" fill="#9999ff" stroke="#9999ff"/>
<text x="662.76" y="240.09" stroke="none">Berlin and Hanover</text>
<path d="M646.9 252.2l0 -8.64l8.64 0l0 8.64z" fill="#770077" stroke="#770077"/>
<text x="662.76" y="252.25" stroke="none">Dizgovzy</text>
<path d="M646.9 264.4l0 -8.64l8.64 0l0 8.64z" fill="#7f5400" stroke="#7f5400"/>
<text x="662.76" y="264.41" stroke="none">Slavatania</text>
<path d="M646.9 276.6l0 -8.64l8.64 0l0 8.64z" fill="#cc843e" stroke="#cc843e"/>
<text x="662.76" y="276.57" stroke="none">Ottterland</text>
</g></g>
</g>
</svg>
